Black Wide — SC 0.ufo
<glyph name="a.sc" format="1">
  <advance width="1427"/>
  <outline>
    <contour>
      <point x="817" y="1292" type="move" name="top"/>
    </contour>
    <contour>
      <point x="1151" y="-121" type="move" name="ogonek"/>
    </contour>
    <contour>
      <point x="617" y="-121" type="move" name="bottom"/>
    </contour>
    <contour>
      <point x="-160" y="97" type="line"/>
      <point x="-165" y="0" type="line"/>
      <point x="413" y="0" type="line"/>
      <point x="418" y="97" type="line"/>
      <point x="220" y="123" type="line"/>
      <point x="637" y="918" type="line"/>
      <point x="780" y="1218" type="line"/>
      <point x="710" y="1230" type="line"/>
      <point x="737" y="915" type="line"/>
      <point x="917" y="123" type="line"/>
      <point x="749" y="97" type="line"/>
      <point x="748" y="0" type="line"/>
      <point x="1451" y="0" type="line"/>
      <point x="1454" y="97" type="line"/>
      <point x="1284" y="125" type="line"/>
      <point x="982" y="1294" type="line"/>
      <point x="640" y="1294" type="line"/>
      <point x="-14" y="123" type="line"/>
    </contour>
    <contour>
      <point x="299" y="484" type="line"/>
      <point x="280" y="345" type="line"/>
      <point x="920" y="345" type="line"/>
      <point x="916" y="484" type="line"/>
    </contour>
  </outline>
</glyph>
<glyph name="ae.sc" format="1">
  <advance width="2094"/>
  <outline>
    <contour>
      <point x="1161" y="1292" type="move" name="top"/>
    </contour>
    <contour>
      <point x="689" y="97" type="line"/>
      <point x="677" y="0" type="line"/>
      <point x="1958" y="0" type="line"/>
      <point x="2019" y="417" type="line"/>
      <point x="1808" y="428" type="line"/>
      <point x="1696" y="156" type="line"/>
      <point x="1198" y="123" type="line"/>
      <point x="1263" y="601" type="line"/>
      <point x="1726" y="569" type="line"/>
      <point x="1753" y="784" type="line"/>
      <point x="1276" y="745" type="line"/>
      <point x="1341" y="1185" type="line"/>
      <point x="1711" y="1159" type="line"/>
      <point x="1754" y="964" type="line"/>
      <point x="1972" y="964" type="line"/>
      <point x="1997" y="1292" type="line"/>
      <point x="381" y="1292" type="line"/>
      <point x="366" y="1185" type="line"/>
      <point x="677" y="1159" type="line"/>
      <point x="-50" y="123" type="line"/>
      <point x="-215" y="97" type="line"/>
      <point x="-221" y="0" type="line"/>
      <point x="431" y="0" type="line"/>
      <point x="436" y="97" type="line"/>
      <point x="231" y="123" type="line"/>
      <point x="384" y="336" type="line"/>
      <point x="885" y="336" type="line"/>
      <point x="853" y="123" type="line"/>
    </contour>
    <contour>
      <point x="459" y="477" type="line"/>
      <point x="893" y="1189" type="line"/>
      <point x="989" y="1190" type="line"/>
      <point x="900" y="477" type="line"/>
    </contour>
  </outline>
</glyph>
<glyph name="b.sc" format="1">
  <advance width="1482"/>
  <outline>
    <contour>
      <point x="805" y="1292" type="move" name="top"/>
    </contour>
    <contour>
      <point x="675" y="0" type="move" name="bottom"/>
    </contour>
    <contour>
      <point x="636" y="-18" type="curve"/>
      <point x="1123" y="-18"/>
      <point x="1390" y="104"/>
      <point x="1382" y="418" type="curve"/>
      <point x="1379" y="578"/>
      <point x="1212" y="691"/>
      <point x="996" y="682" type="curve"/>
      <point x="1256" y="736"/>
      <point x="1386" y="836"/>
      <point x="1371" y="1032" type="curve"/>
      <point x="1361" y="1164"/>
      <point x="1267" y="1308"/>
      <point x="864" y="1308" type="curve"/>
      <point x="731" y="1308"/>
      <point x="617" y="1294"/>
      <point x="499" y="1292" type="curve"/>
      <point x="153" y="1292" type="line"/>
      <point x="144" y="1193" type="line"/>
      <point x="296" y="1171" type="line"/>
      <point x="154" y="123" type="line"/>
      <point x="7" y="97" type="line"/>
      <point x="2" y="0" type="line"/>
      <point x="305" y="0" type="line" smooth="yes"/>
      <point x="397" y="0"/>
      <point x="536" y="-18"/>
    </contour>
    <contour>
      <point x="677" y="93" type="curve"/>
      <point x="606" y="93"/>
      <point x="433" y="117"/>
      <point x="450" y="135" type="curve"/>
      <point x="473" y="51" type="line"/>
      <point x="639" y="1256" type="line"/>
      <point x="586" y="1157" type="line"/>
      <point x="576" y="1187"/>
      <point x="732" y="1193"/>
      <point x="790" y="1193" type="curve"/>
      <point x="949" y="1193"/>
      <point x="1034" y="1125"/>
      <point x="1045" y="1002" type="curve"/>
      <point x="1059" y="802"/>
      <point x="894" y="732"/>
      <point x="710" y="732" type="curve"/>
      <point x="653" y="732"/>
      <point x="582" y="732"/>
      <point x="525" y="732" type="curve"/>
      <point x="505" y="605" type="line"/>
      <point x="531" y="606"/>
      <point x="630" y="607"/>
      <point x="701" y="607" type="curve"/>
      <point x="921" y="607"/>
      <point x="1008" y="540"/>
      <point x="1020" y="387" type="curve"/>
      <point x="1036" y="191"/>
      <point x="908" y="93"/>
    </contour>
  </outline>
</glyph>
<glyph name="c.sc" format="1">
  <advance width="1367"/>
  <outline>
    <contour>
      <point x="815" y="1292" type="move" name="top"/>
    </contour>
    <contour>
      <point x="705" y="0" type="move" name="bottom"/>
    </contour>
    <contour>
      <point x="706" y="-14" type="curve"/>
      <point x="1003" y="-14"/>
      <point x="1146" y="65"/>
      <point x="1228" y="128" type="curve"/>
      <point x="1264" y="359" type="line"/>
      <point x="1064" y="359" type="line"/>
      <point x="1039" y="290"/>
      <point x="1022" y="224"/>
      <point x="990" y="195" type="curve"/>
      <point x="914" y="131"/>
      <point x="810" y="136"/>
      <point x="753" y="136" type="curve"/>
      <point x="544" y="136"/>
      <point x="454" y="262"/>
      <point x="434" y="558" type="curve"/>
      <point x="416" y="842"/>
      <point x="545" y="1193"/>
      <point x="889" y="1193" type="curve"/>
      <point x="935" y="1193"/>
      <point x="972" y="1192"/>
      <point x="1005" y="1186" type="curve"/>
      <point x="1051" y="915" type="line"/>
      <point x="1300" y="915" type="line"/>
      <point x="1353" y="1264" type="line"/>
      <point x="1258" y="1264"/>
      <point x="1167" y="1308"/>
      <point x="939" y="1308" type="curve"/>
      <point x="397" y="1308"/>
      <point x="35" y="1039"/>
      <point x="47" y="557" type="curve"/>
      <point x="54" y="237"/>
      <point x="240" y="-14"/>
    </contour>
  </outline>
</glyph>
<glyph name="d.sc" format="1">
  <advance width="1594"/>
  <outline>
    <contour>
      <point x="843" y="1294" type="move" name="top"/>
    </contour>
    <contour>
      <point x="642" y="0" type="move" name="bottom"/>
    </contour>
    <contour>
      <point x="638" y="-14" type="curve"/>
      <point x="1286" y="-10"/>
      <point x="1550" y="299"/>
      <point x="1542" y="765" type="curve"/>
      <point x="1536" y="1121"/>
      <point x="1303" y="1306"/>
      <point x="847" y="1306" type="curve"/>
      <point x="726" y="1306"/>
      <point x="596" y="1294"/>
      <point x="481" y="1292" type="curve"/>
      <point x="154" y="1292" type="line"/>
      <point x="147" y="1193" type="line"/>
      <point x="295" y="1171" type="line"/>
      <point x="153" y="123" type="line"/>
      <point x="-10" y="97" type="line"/>
      <point x="-19" y="0" type="line"/>
      <point x="353" y="0" type="line"/>
      <point x="430" y="0"/>
      <point x="545" y="-14"/>
    </contour>
    <contour>
      <point x="660" y="99" type="curve"/>
      <point x="597" y="99"/>
      <point x="494" y="116"/>
      <point x="450" y="144" type="curve"/>
      <point x="490" y="71" type="line"/>
      <point x="650" y="1235" type="line"/>
      <point x="602" y="1156" type="line"/>
      <point x="642" y="1169"/>
      <point x="693" y="1193"/>
      <point x="816" y="1193" type="curve"/>
      <point x="1057" y="1193"/>
      <point x="1164" y="1059"/>
      <point x="1170" y="737" type="curve"/>
      <point x="1174" y="465"/>
      <point x="1046" y="96"/>
    </contour>
  </outline>
</glyph>
<glyph name="e.sc" format="1">
  <advance width="1400"/>
  <outline>
    <contour>
      <point x="775" y="1292" type="move" name="top"/>
    </contour>
    <contour>
      <point x="1090" y="0" type="move" name="ogonek"/>
    </contour>
    <contour>
      <point x="643" y="0" type="move" name="bottom"/>
    </contour>
    <contour>
      <point x="1302" y="1292" type="line"/>
      <point x="156" y="1292" type="line"/>
      <point x="147" y="1192" type="line"/>
      <point x="298" y="1172" type="line"/>
      <point x="155" y="123" type="line"/>
      <point x="-10" y="97" type="line"/>
      <point x="-21" y="0" type="line"/>
      <point x="1261" y="0" type="line"/>
      <point x="1325" y="414" type="line"/>
      <point x="1116" y="424" type="line"/>
      <point x="1009" y="174" type="line"/>
      <point x="508" y="140" type="line"/>
      <point x="566" y="614" type="line"/>
      <point x="1038" y="585" type="line"/>
      <point x="1065" y="802" type="line"/>
      <point x="587" y="756" type="line"/>
      <point x="648" y="1184" type="line"/>
      <point x="1025" y="1159" type="line"/>
      <point x="1073" y="968" type="line"/>
      <point x="1279" y="968" type="line"/>
    </contour>
  </outline>
</glyph>
<glyph name="ezh.sc" format="1">
  <advance width="1268"/>
  <outline>
    <contour>
      <point x="486" y="-10" type="curve"/>
      <point x="947" y="-10"/>
      <point x="1185" y="200"/>
      <point x="1181" y="454" type="curve"/>
      <point x="1177" y="700"/>
      <point x="959" y="781"/>
      <point x="686" y="803" type="curve"/>
      <point x="576" y="689" type="line"/>
      <point x="1199" y="1156" type="line"/>
      <point x="1214" y="1292" type="line"/>
      <point x="185" y="1292" type="line"/>
      <point x="140" y="963" type="line"/>
      <point x="326" y="963" type="line"/>
      <point x="389" y="1108" type="line"/>
      <point x="878" y="1108" type="line"/>
      <point x="775" y="1023" type="line"/>
      <point x="398" y="699" type="line"/>
      <point x="461" y="629" type="line"/>
      <point x="487" y="628"/>
      <point x="514" y="629"/>
      <point x="542" y="629" type="curve"/>
      <point x="729" y="629"/>
      <point x="827" y="539"/>
      <point x="829" y="391" type="curve"/>
      <point x="832" y="244"/>
      <point x="696" y="123"/>
      <point x="517" y="123" type="curve"/>
      <point x="376" y="123"/>
      <point x="299" y="176"/>
      <point x="293" y="184" type="curve"/>
      <point x="249" y="385" type="line"/>
      <point x="94" y="385" type="line"/>
      <point x="32" y="56" type="line"/>
      <point x="76" y="48"/>
      <point x="232" y="-10"/>
    </contour>
  </outline>
</glyph>
<glyph name="f.sc" format="1">
  <advance width="1296"/>
  <outline>
    <contour>
      <point x="770" y="1292" type="move" name="top"/>
    </contour>
    <contour>
      <point x="6" y="97" type="line"/>
      <point x="-3" y="0" type="line"/>
      <point x="780" y="0" type="line"/>
      <point x="787" y="97" type="line"/>
      <point x="496" y="122" type="line"/>
      <point x="557" y="588" type="line"/>
      <point x="1059" y="552" type="line"/>
      <point x="1085" y="761" type="line"/>
      <point x="578" y="733" type="line"/>
      <point x="640" y="1183" type="line"/>
      <point x="1035" y="1161" type="line"/>
      <point x="1071" y="952" type="line"/>
      <point x="1289" y="952" type="line"/>
      <point x="1319" y="1292" type="line"/>
      <point x="154" y="1292" type="line"/>
      <point x="141" y="1192" type="line"/>
      <point x="294" y="1172" type="line"/>
      <point x="151" y="123" type="line"/>
    </contour>
  </outline>
</glyph>
<glyph name="g.sc" format="1">
  <advance width="1505"/>
  <outline>
    <contour>
      <point x="891" y="1292" type="move" name="top"/>
    </contour>
    <contour>
      <point x="706" y="0" type="move" name="bottom"/>
    </contour>
    <contour>
      <point x="683" y="-14" type="curve"/>
      <point x="878" y="-14"/>
      <point x="1017" y="16"/>
      <point x="1132" y="42" type="curve"/>
      <point x="1199" y="56"/>
      <point x="1288" y="66"/>
      <point x="1326" y="70" type="curve"/>
      <point x="1401" y="647" type="line"/>
      <point x="830" y="647" type="line"/>
      <point x="816" y="511" type="line"/>
      <point x="1036" y="497" type="line"/>
      <point x="992" y="136" type="line"/>
      <point x="929" y="127"/>
      <point x="845" y="126"/>
      <point x="747" y="126" type="curve"/>
      <point x="547" y="126"/>
      <point x="439" y="294"/>
      <point x="433" y="589" type="curve"/>
      <point x="425" y="932"/>
      <point x="535" y="1193"/>
      <point x="916" y="1193" type="curve"/>
      <point x="997" y="1193"/>
      <point x="1064" y="1181"/>
      <point x="1116" y="1160" type="curve"/>
      <point x="1131" y="961" type="line"/>
      <point x="1369" y="961" type="line"/>
      <point x="1428" y="1250" type="line"/>
      <point x="1335" y="1250"/>
      <point x="1218" y="1308"/>
      <point x="911" y="1308" type="curve"/>
      <point x="347" y="1308"/>
      <point x="40" y="1008"/>
      <point x="66" y="532" type="curve"/>
      <point x="82" y="237"/>
      <point x="262" y="-14"/>
    </contour>
  </outline>
</glyph>
<glyph name="germandbls.sc" format="1">
  <advance width="1591"/>
  <outline>
    <contour>
      <point x="956" y="-20" type="curve"/>
      <point x="1249" y="-20"/>
      <point x="1494" y="124"/>
      <point x="1490" y="396" type="curve"/>
      <point x="1487" y="628"/>
      <point x="1264" y="745"/>
      <point x="1066" y="784" type="curve"/>
      <point x="1387" y="1064" type="line"/>
      <point x="1407" y="1186" type="line"/>
      <point x="1355" y="1238"/>
      <point x="1221" y="1317"/>
      <point x="929" y="1317" type="curve"/>
      <point x="495" y="1317"/>
      <point x="216" y="1164"/>
      <point x="167" y="792" type="curve"/>
      <point x="75" y="122" type="line"/>
      <point x="-57" y="96" type="line"/>
      <point x="-64" y="0" type="line"/>
      <point x="417" y="0" type="line"/>
      <point x="527" y="829" type="line" smooth="yes"/>
      <point x="560" y="1062"/>
      <point x="655" y="1206"/>
      <point x="897" y="1206" type="curve"/>
      <point x="1034" y="1206"/>
      <point x="1122" y="1140"/>
      <point x="1143" y="1062" type="curve"/>
      <point x="825" y="742" type="line"/>
      <point x="814" y="671" type="line"/>
      <point x="1035" y="588"/>
      <point x="1137" y="456"/>
      <point x="1138" y="334" type="curve"/>
      <point x="1141" y="152"/>
      <point x="1060" y="78"/>
      <point x="963" y="78" type="curve"/>
      <point x="888" y="78"/>
      <point x="841" y="100"/>
      <point x="820" y="144" type="curve"/>
      <point x="788" y="288" type="line"/>
      <point x="626" y="288" type="line"/>
      <point x="592" y="28" type="line"/>
      <point x="666" y="22"/>
      <point x="794" y="-20"/>
    </contour>
  </outline>
</glyph>
<glyph name="h.sc" format="1">
  <advance width="1732"/>
  <outline>
    <contour>
      <point x="951" y="1292" type="move" name="top"/>
    </contour>
    <contour>
      <point x="791" y="0" type="move" name="bottom"/>
    </contour>
    <contour>
      <point x="1" y="96" type="line"/>
      <point x="-6" y="0" type="line"/>
      <point x="673" y="0" type="line"/>
      <point x="679" y="96" type="line"/>
      <point x="494" y="122" type="line"/>
      <point x="638" y="1172" type="line"/>
      <point x="827" y="1192" type="line"/>
      <point x="836" y="1292" type="line"/>
      <point x="153" y="1292" type="line"/>
      <point x="140" y="1192" type="line"/>
      <point x="290" y="1172" type="line"/>
      <point x="146" y="122" type="line"/>
    </contour>
    <contour>
      <point x="395" y="720" type="line"/>
      <point x="397" y="594" type="line"/>
      <point x="1240" y="594" type="line"/>
      <point x="1238" y="720" type="line"/>
    </contour>
    <contour>
      <point x="891" y="96" type="line"/>
      <point x="881" y="0" type="line"/>
      <point x="1583" y="0" type="line"/>
      <point x="1592" y="96" type="line"/>
      <point x="1436" y="122" type="line"/>
      <point x="1579" y="1172" type="line"/>
      <point x="1730" y="1192" type="line"/>
      <point x="1739" y="1292" type="line"/>
      <point x="1058" y="1292" type="line"/>
      <point x="1049" y="1192" type="line"/>
      <point x="1229" y="1172" type="line"/>
      <point x="1085" y="122" type="line"/>
    </contour>
  </outline>
</glyph>
<glyph name="i.sc" format="1">
  <advance width="806"/>
  <outline>
    <contour>
      <point x="509" y="1383" type="move" name="top"/>
    </contour>
    <contour>
      <point x="490" y="0" type="move" name="ogonek"/>
    </contour>
    <contour>
      <point x="316" y="0" type="move" name="bottom"/>
    </contour>
    <contour>
      <point x="-4" y="97" type="line"/>
      <point x="-14" y="0" type="line"/>
      <point x="680" y="0" type="line"/>
      <point x="683" y="97" type="line"/>
      <point x="502" y="123" type="line"/>
      <point x="644" y="1172" type="line"/>
      <point x="822" y="1192" type="line"/>
      <point x="831" y="1292" type="line"/>
      <point x="151" y="1292" type="line"/>
      <point x="143" y="1192" type="line"/>
      <point x="295" y="1172" type="line"/>
      <point x="153" y="123" type="line"/>
    </contour>
  </outline>
</glyph>
<glyph name="j.sc" format="1">
  <advance width="780"/>
  <outline>
    <contour>
      <point x="305" y="-142" type="move" name="btm"/>
    </contour>
    <contour>
      <point x="502" y="1292" type="move" name="top"/>
    </contour>
    <contour>
      <point x="642" y="1171" type="curve"/>
      <point x="795" y="1193" type="line"/>
      <point x="804" y="1292" type="line"/>
      <point x="153" y="1292" type="line"/>
      <point x="140" y="1193" type="line"/>
      <point x="297" y="1169" type="line"/>
      <point x="260" y="809"/>
      <point x="214" y="416"/>
      <point x="151" y="76" type="curve"/>
      <point x="129" y="-38"/>
      <point x="39" y="-126"/>
      <point x="-186" y="-188" type="curve"/>
      <point x="-130" y="-292" type="line"/>
      <point x="202" y="-268"/>
      <point x="415" y="-127"/>
      <point x="488" y="62" type="curve"/>
      <point x="518" y="138"/>
      <point x="580" y="668"/>
    </contour>
  </outline>
</glyph>
<glyph name="k.sc" format="1">
  <advance width="1578"/>
  <outline>
    <contour>
      <point x="938" y="1292" type="move" name="top"/>
    </contour>
    <contour>
      <point x="823" y="0" type="move" name="bottom"/>
    </contour>
    <contour>
      <point x="7" y="96" type="line"/>
      <point x="-4" y="0" type="line"/>
      <point x="671" y="0" type="line"/>
      <point x="678" y="96" type="line"/>
      <point x="497" y="122" type="line"/>
      <point x="642" y="1172" type="line"/>
      <point x="831" y="1192" type="line"/>
      <point x="840" y="1292" type="line"/>
      <point x="154" y="1292" type="line"/>
      <point x="144" y="1192" type="line"/>
      <point x="294" y="1172" type="line"/>
      <point x="148" y="122" type="line"/>
    </contour>
    <contour>
      <point x="522" y="594" type="line"/>
      <point x="515" y="420" type="line"/>
      <point x="767" y="621" type="line"/>
      <point x="930" y="779" type="line"/>
      <point x="1446" y="1172" type="line"/>
      <point x="1577" y="1192" type="line"/>
      <point x="1586" y="1292" type="line"/>
      <point x="1049" y="1292" type="line"/>
      <point x="1037" y="1194" type="line"/>
      <point x="1206" y="1172" type="line"/>
    </contour>
    <contour>
      <point x="1108" y="0" type="curve"/>
      <point x="1546" y="0" type="line"/>
      <point x="1556" y="98" type="line"/>
      <point x="1429" y="120" type="line"/>
      <point x="1374" y="146"/>
      <point x="1325" y="248"/>
      <point x="1213" y="406" type="curve"/>
      <point x="1156" y="490"/>
      <point x="1012" y="740"/>
      <point x="945" y="818" type="curve"/>
      <point x="713" y="630" type="line"/>
      <point x="791" y="494"/>
      <point x="882" y="258"/>
      <point x="943" y="144" type="curve"/>
      <point x="1002" y="36"/>
      <point x="1049" y="6"/>
    </contour>
  </outline>
</glyph>
<glyph name="l.sc" format="1">
  <advance width="1334"/>
  <outline>
    <contour>
      <point x="869" y="966" type="move" name="car"/>
    </contour>
    <contour>
      <point x="490" y="1292" type="move" name="top"/>
    </contour>
    <contour>
      <point x="612" y="0" type="move" name="bottom"/>
    </contour>
    <contour>
      <point x="3" y="96" type="line"/>
      <point x="-6" y="0" type="line"/>
      <point x="1176" y="0" type="line"/>
      <point x="1270" y="520" type="line"/>
      <point x="1089" y="540" type="line"/>
      <point x="889" y="136" type="line"/>
      <point x="493" y="116" type="line"/>
      <point x="637" y="1172" type="line"/>
      <point x="830" y="1192" type="line"/>
      <point x="839" y="1292" type="line"/>
      <point x="153" y="1292" type="line"/>
      <point x="140" y="1192" type="line"/>
      <point x="291" y="1172" type="line"/>
      <point x="147" y="122" type="line"/>
    </contour>
  </outline>
</glyph>
<glyph name="m.sc" format="1">
  <advance width="2116"/>
  <outline>
    <contour>
      <point x="1155" y="1292" type="move" name="top"/>
    </contour>
    <contour>
      <point x="918" y="0" type="move" name="bottom"/>
    </contour>
    <contour>
      <point x="-55" y="96" type="line"/>
      <point x="-64" y="0" type="line"/>
      <point x="568" y="0" type="line"/>
      <point x="575" y="96" type="line"/>
      <point x="341" y="122" type="line"/>
      <point x="515" y="845" type="line"/>
      <point x="594" y="1167" type="line"/>
      <point x="664" y="853" type="line"/>
      <point x="840" y="-16" type="line"/>
      <point x="1008" y="-2" type="line"/>
      <point x="1445" y="875" type="line"/>
      <point x="1586" y="1168" type="line"/>
      <point x="1575" y="833" type="line"/>
      <point x="1541" y="123" type="line"/>
      <point x="1345" y="101" type="line"/>
      <point x="1340" y="0" type="line"/>
      <point x="2066" y="0" type="line"/>
      <point x="2071" y="97" type="line"/>
      <point x="1882" y="123" type="line"/>
      <point x="1887" y="1171" type="line"/>
      <point x="2072" y="1193" type="line"/>
      <point x="2083" y="1292" type="line"/>
      <point x="1462" y="1292" type="line"/>
      <point x="1126" y="622" type="line"/>
      <point x="1066" y="486" type="line"/>
      <point x="1038" y="620" type="line"/>
      <point x="902" y="1292" type="line"/>
      <point x="209" y="1292" type="line"/>
      <point x="196" y="1193" type="line"/>
      <point x="398" y="1171" type="line"/>
      <point x="115" y="122" type="line"/>
    </contour>
  </outline>
</glyph>
<glyph name="n.sc" format="1">
  <advance width="1656"/>
  <outline>
    <contour>
      <point x="946" y="1290" type="move" name="top"/>
    </contour>
    <contour>
      <point x="780" y="0" type="move" name="bottom"/>
    </contour>
    <contour>
      <point x="1" y="96" type="line"/>
      <point x="-4" y="0" type="line"/>
      <point x="564" y="0" type="line"/>
      <point x="573" y="96" type="line"/>
      <point x="372" y="122" type="line"/>
      <point x="489" y="1201" type="line"/>
      <point x="425" y="1194" type="line"/>
      <point x="567" y="844" type="line"/>
      <point x="1007" y="0" type="line"/>
      <point x="1360" y="0" type="line"/>
      <point x="1544" y="1172" type="line"/>
      <point x="1691" y="1192" type="line"/>
      <point x="1697" y="1292" type="line"/>
      <point x="1172" y="1292" type="line"/>
      <point x="1164" y="1192" type="line"/>
      <point x="1339" y="1172" type="line"/>
      <point x="1203" y="154" type="line"/>
      <point x="1274" y="162" type="line"/>
      <point x="1131" y="486" type="line"/>
      <point x="711" y="1292" type="line"/>
      <point x="153" y="1292" type="line"/>
      <point x="140" y="1192" type="line"/>
      <point x="308" y="1172" type="line"/>
      <point x="160" y="122" type="line"/>
    </contour>
  </outline>
</glyph>
<glyph name="o.sc" format="1">
  <advance width="1554"/>
  <outline>
    <contour>
      <point x="148" y="1292" type="move" name="topleft"/>
    </contour>
    <contour>
      <point x="778" y="648" type="move" name="center"/>
    </contour>
    <contour>
      <point x="690" y="0" type="move" name="bottom"/>
    </contour>
    <contour>
      <point x="863" y="1292" type="move" name="top"/>
    </contour>
    <contour>
      <point x="1149" y="1264" type="move" name="topright"/>
    </contour>
    <contour>
      <point x="920" y="18" type="move" name="ogonek"/>
    </contour>
    <contour>
      <point x="683" y="-18" type="curve"/>
      <point x="1253" y="-18"/>
      <point x="1483" y="378"/>
      <point x="1474" y="744" type="curve"/>
      <point x="1466" y="1048"/>
      <point x="1283" y="1310"/>
      <point x="856" y="1310" type="curve"/>
      <point x="309" y="1310"/>
      <point x="52" y="932"/>
      <point x="62" y="558" type="curve"/>
      <point x="70" y="226"/>
      <point x="256" y="-18"/>
    </contour>
    <contour>
      <point x="707" y="94" type="curve"/>
      <point x="536" y="94"/>
      <point x="444" y="250"/>
      <point x="437" y="570" type="curve"/>
      <point x="430" y="878"/>
      <point x="570" y="1198"/>
      <point x="830" y="1198" type="curve"/>
      <point x="1002" y="1198"/>
      <point x="1091" y="1050"/>
      <point x="1099" y="724" type="curve"/>
      <point x="1107" y="380"/>
      <point x="978" y="94"/>
    </contour>
  </outline>
</glyph>
<glyph name="oe.sc" format="1">
  <advance width="2439"/>
  <outline>
    <contour>
      <point x="692" y="-18" type="curve"/>
      <point x="924" y="-18"/>
      <point x="1103" y="30"/>
      <point x="1218" y="168" type="curve"/>
      <point x="1191" y="0" type="line"/>
      <point x="2303" y="0" type="line"/>
      <point x="2364" y="417" type="line"/>
      <point x="2153" y="428" type="line"/>
      <point x="2048" y="168" type="line"/>
      <point x="1528" y="136" type="line"/>
      <point x="1588" y="594" type="line"/>
      <point x="2039" y="562" type="line"/>
      <point x="2071" y="796" type="line"/>
      <point x="1606" y="756" type="line"/>
      <point x="1664" y="1184" type="line"/>
      <point x="2062" y="1159" type="line"/>
      <point x="2112" y="964" type="line"/>
      <point x="2320" y="964" type="line"/>
      <point x="2342" y="1292" type="line"/>
      <point x="1350" y="1292" type="line"/>
      <point x="1321" y="1110" type="line"/>
      <point x="1215" y="1236"/>
      <point x="1102" y="1310"/>
      <point x="863" y="1310" type="curve"/>
      <point x="306" y="1310"/>
      <point x="52" y="929"/>
      <point x="61" y="555" type="curve"/>
      <point x="70" y="236"/>
      <point x="265" y="-18"/>
    </contour>
    <contour>
      <point x="718" y="93" type="curve"/>
      <point x="530" y="93"/>
      <point x="435" y="251"/>
      <point x="429" y="559" type="curve"/>
      <point x="422" y="874"/>
      <point x="567" y="1199"/>
      <point x="841" y="1199" type="curve"/>
      <point x="1025" y="1199"/>
      <point x="1120" y="1045"/>
      <point x="1127" y="727" type="curve"/>
      <point x="1135" y="377"/>
      <point x="1003" y="93"/>
    </contour>
  </outline>
</glyph>
<glyph name="p.sc" format="1">
  <advance width="1401"/>
  <outline>
    <contour>
      <point x="800" y="1292" type="move" name="top"/>
    </contour>
    <contour>
      <point x="1" y="96" type="line"/>
      <point x="-6" y="0" type="line"/>
      <point x="748" y="0" type="line"/>
      <point x="753" y="96" type="line"/>
      <point x="494" y="122" type="line"/>
      <point x="648" y="1249" type="line"/>
      <point x="550" y="1151" type="line"/>
      <point x="597" y="1192"/>
      <point x="691" y="1192"/>
      <point x="745" y="1192" type="curve"/>
      <point x="932" y="1192"/>
      <point x="1031" y="1108"/>
      <point x="1033" y="948" type="curve"/>
      <point x="1037" y="720"/>
      <point x="909" y="544"/>
      <point x="678" y="544" type="curve"/>
      <point x="644" y="544"/>
      <point x="607" y="544"/>
      <point x="525" y="556" type="curve"/>
      <point x="511" y="435" type="line"/>
      <point x="562" y="429"/>
      <point x="614" y="426"/>
      <point x="668" y="426" type="curve"/>
      <point x="1123" y="426"/>
      <point x="1411" y="618"/>
      <point x="1390" y="956" type="curve"/>
      <point x="1377" y="1176"/>
      <point x="1205" y="1306"/>
      <point x="804" y="1306" type="curve"/>
      <point x="696" y="1306"/>
      <point x="592" y="1292"/>
      <point x="467" y="1292" type="curve"/>
      <point x="154" y="1292" type="line"/>
      <point x="141" y="1192" type="line"/>
      <point x="290" y="1172" type="line"/>
      <point x="146" y="122" type="line"/>
    </contour>
  </outline>
</glyph>
<glyph name="q.sc" format="1">
  <advance width="1553"/>
  <outline>
    <contour>
      <point x="1055" y="-388" type="curve"/>
      <point x="1258" y="-388"/>
      <point x="1375" y="-324"/>
      <point x="1429" y="-288" type="curve"/>
      <point x="1422" y="-114" type="line"/>
      <point x="1339" y="-138"/>
      <point x="1215" y="-146"/>
      <point x="1145" y="-146" type="curve"/>
      <point x="995" y="-146"/>
      <point x="856" y="-131"/>
      <point x="853" y="4" type="curve"/>
      <point x="688" y="-12" type="line"/>
      <point x="667" y="-104"/>
      <point x="675" y="-187"/>
      <point x="712" y="-247" type="curve"/>
      <point x="767" y="-338"/>
      <point x="883" y="-388"/>
    </contour>
    <contour>
      <point x="683" y="-18" type="curve"/>
      <point x="1253" y="-18"/>
      <point x="1483" y="378"/>
      <point x="1474" y="744" type="curve"/>
      <point x="1466" y="1048"/>
      <point x="1283" y="1310"/>
      <point x="856" y="1310" type="curve"/>
      <point x="309" y="1310"/>
      <point x="52" y="932"/>
      <point x="62" y="558" type="curve"/>
      <point x="70" y="226"/>
      <point x="256" y="-18"/>
    </contour>
    <contour>
      <point x="707" y="94" type="curve"/>
      <point x="536" y="94"/>
      <point x="444" y="250"/>
      <point x="437" y="570" type="curve"/>
      <point x="430" y="878"/>
      <point x="570" y="1198"/>
      <point x="830" y="1198" type="curve"/>
      <point x="1002" y="1198"/>
      <point x="1091" y="1050"/>
      <point x="1099" y="724" type="curve"/>
      <point x="1107" y="380"/>
      <point x="978" y="94"/>
    </contour>
  </outline>
</glyph>
<glyph name="r.sc" format="1">
  <advance width="1530"/>
  <outline>
    <contour>
      <point x="788" y="1292" type="move" name="top"/>
    </contour>
    <contour>
      <point x="766" y="0" type="move" name="bottom"/>
    </contour>
    <contour>
      <point x="4" y="96" type="line"/>
      <point x="-3" y="0" type="line"/>
      <point x="679" y="0" type="line"/>
      <point x="684" y="96" type="line"/>
      <point x="485" y="122" type="line"/>
      <point x="638" y="1264" type="line"/>
      <point x="493" y="1147" type="line"/>
      <point x="598" y="1192"/>
      <point x="703" y="1192"/>
      <point x="752" y="1192" type="curve"/>
      <point x="918" y="1192"/>
      <point x="1014" y="1130"/>
      <point x="1016" y="988" type="curve"/>
      <point x="1020" y="790"/>
      <point x="925" y="684"/>
      <point x="720" y="684" type="curve"/>
      <point x="655" y="684"/>
      <point x="590" y="685"/>
      <point x="525" y="685" type="curve"/>
      <point x="501" y="560" type="line"/>
      <point x="566" y="560"/>
      <point x="632" y="560"/>
      <point x="697" y="560" type="curve"/>
      <point x="785" y="560"/>
      <point x="854" y="304"/>
      <point x="937" y="148" type="curve"/>
      <point x="975" y="90"/>
      <point x="1021" y="0"/>
      <point x="1072" y="0" type="curve"/>
      <point x="1460" y="0" type="line"/>
      <point x="1466" y="96" type="line"/>
      <point x="1334" y="98"/>
      <point x="1296" y="184"/>
      <point x="1208" y="324" type="curve"/>
      <point x="1157" y="409"/>
      <point x="1045" y="648"/>
      <point x="987" y="613" type="curve"/>
      <point x="912" y="572" type="line"/>
      <point x="1207" y="618"/>
      <point x="1364" y="763"/>
      <point x="1360" y="968" type="curve"/>
      <point x="1356" y="1192"/>
      <point x="1198" y="1306"/>
      <point x="820" y="1306" type="curve"/>
      <point x="653" y="1306"/>
      <point x="595" y="1292"/>
      <point x="462" y="1292" type="curve"/>
      <point x="153" y="1292" type="line"/>
      <point x="144" y="1192" type="line"/>
      <point x="291" y="1172" type="line"/>
      <point x="147" y="122" type="line"/>
    </contour>
  </outline>
</glyph>
<glyph name="s.sc" format="1">
  <advance width="1216"/>
  <outline>
    <contour>
      <point x="716" y="1292" type="move" name="top"/>
    </contour>
    <contour>
      <point x="519" y="0" type="move" name="bottom"/>
    </contour>
    <contour>
      <point x="522" y="-20" type="curve"/>
      <point x="919" y="-20"/>
      <point x="1108" y="178"/>
      <point x="1107" y="376" type="curve"/>
      <point x="1107" y="548"/>
      <point x="937" y="675"/>
      <point x="765" y="766" type="curve"/>
      <point x="565" y="875"/>
      <point x="458" y="942"/>
      <point x="456" y="1061" type="curve"/>
      <point x="455" y="1136"/>
      <point x="532" y="1200"/>
      <point x="678" y="1200" type="curve"/>
      <point x="784" y="1200"/>
      <point x="837" y="1176"/>
      <point x="867" y="1148" type="curve"/>
      <point x="901" y="976" type="line"/>
      <point x="1091" y="976" type="line"/>
      <point x="1139" y="1234" type="line"/>
      <point x="1070" y="1266"/>
      <point x="941" y="1308"/>
      <point x="708" y="1308" type="curve"/>
      <point x="387" y="1308"/>
      <point x="147" y="1180"/>
      <point x="147" y="925" type="curve"/>
      <point x="147" y="776"/>
      <point x="282" y="646"/>
      <point x="502" y="524" type="curve"/>
      <point x="703" y="413"/>
      <point x="783" y="348"/>
      <point x="786" y="251" type="curve"/>
      <point x="786" y="172"/>
      <point x="702" y="97"/>
      <point x="511" y="96" type="curve"/>
      <point x="405" y="97"/>
      <point x="333" y="126"/>
      <point x="292" y="156" type="curve"/>
      <point x="275" y="350" type="line"/>
      <point x="67" y="350" type="line"/>
      <point x="18" y="72" type="line"/>
      <point x="66" y="42"/>
      <point x="279" y="-20"/>
    </contour>
  </outline>
</glyph>
<glyph name="schwa.sc" format="1">
  <advance width="1450"/>
  <outline>
    <contour>
      <point x="595" y="-20" type="curve"/>
      <point x="1007" y="-20"/>
      <point x="1346" y="314"/>
      <point x="1338" y="772" type="curve"/>
      <point x="1332" y="1100"/>
      <point x="1101" y="1306"/>
      <point x="775" y="1306" type="curve"/>
      <point x="391" y="1306"/>
      <point x="313" y="1226"/>
      <point x="200" y="1228" type="curve"/>
      <point x="162" y="936" type="line"/>
      <point x="347" y="936" type="line"/>
      <point x="438" y="1119" type="line" smooth="yes"/>
      <point x="473" y="1174"/>
      <point x="535" y="1205"/>
      <point x="670" y="1205" type="curve"/>
      <point x="899" y="1205"/>
      <point x="993" y="971"/>
      <point x="988" y="663" type="curve"/>
      <point x="988" y="664"/>
      <point x="985" y="665"/>
      <point x="984" y="664" type="curve"/>
      <point x="102" y="664" type="line"/>
      <point x="82" y="618"/>
      <point x="59" y="516"/>
      <point x="61" y="416" type="curve"/>
      <point x="65" y="144"/>
      <point x="264" y="-20"/>
    </contour>
    <contour>
      <point x="638" y="103" type="curve"/>
      <point x="478" y="103"/>
      <point x="405" y="189"/>
      <point x="402" y="382" type="curve"/>
      <point x="401" y="439"/>
      <point x="412" y="475"/>
      <point x="426" y="537" type="curve"/>
      <point x="975" y="537" type="line"/>
      <point x="937" y="195"/>
      <point x="797" y="103"/>
    </contour>
  </outline>
</glyph>
<glyph name="t.sc" format="1">
  <advance width="1509"/>
  <outline>
    <contour>
      <point x="845" y="1292" type="move" name="top"/>
    </contour>
    <contour>
      <point x="684" y="0" type="move" name="bottom"/>
    </contour>
    <contour>
      <point x="243" y="116" type="line"/>
      <point x="225" y="0" type="line"/>
      <point x="1151" y="0" type="line"/>
      <point x="1165" y="116" type="line"/>
      <point x="859" y="142" type="line"/>
      <point x="1005" y="1185" type="line"/>
      <point x="1272" y="1161" type="line"/>
      <point x="1302" y="770" type="line"/>
      <point x="1480" y="770" type="line"/>
      <point x="1550" y="1292" type="line"/>
      <point x="135" y="1292" type="line"/>
      <point x="53" y="770" type="line"/>
      <point x="238" y="770" type="line"/>
      <point x="390" y="1161" type="line"/>
      <point x="660" y="1184" type="line"/>
      <point x="521" y="142" type="line"/>
    </contour>
  </outline>
</glyph>
<glyph name="u.sc" format="1">
  <advance width="1537"/>
  <outline>
    <contour>
      <point x="891" y="1292" type="move" name="top"/>
    </contour>
    <contour>
      <point x="902" y="16" type="move" name="ogonek"/>
    </contour>
    <contour>
      <point x="1581" y="1292" type="move" name="topright"/>
    </contour>
    <contour>
      <point x="734" y="0" type="move" name="bottom"/>
    </contour>
    <contour>
      <point x="725" y="-18" type="curve"/>
      <point x="1147" y="-18"/>
      <point x="1327" y="175"/>
      <point x="1373" y="532" type="curve"/>
      <point x="1454" y="1171" type="line"/>
      <point x="1589" y="1195" type="line"/>
      <point x="1600" y="1292" type="line"/>
      <point x="1119" y="1292" type="line"/>
      <point x="1112" y="1195" type="line"/>
      <point x="1265" y="1171" type="line"/>
      <point x="1178" y="532" type="line" smooth="yes"/>
      <point x="1144" y="281"/>
      <point x="1057" y="95"/>
      <point x="783" y="95" type="curve"/>
      <point x="523" y="95"/>
      <point x="473" y="276"/>
      <point x="506" y="532" type="curve"/>
      <point x="590" y="1171" type="line"/>
      <point x="792" y="1195" type="line"/>
      <point x="801" y="1292" type="line"/>
      <point x="99" y="1292" type="line"/>
      <point x="90" y="1193" type="line"/>
      <point x="242" y="1171" type="line"/>
      <point x="156" y="504" type="line" smooth="yes"/>
      <point x="114" y="150"/>
      <point x="313" y="-18"/>
    </contour>
  </outline>
</glyph>
<glyph name="w.sc" format="1">
  <advance width="2043"/>
  <outline>
    <contour>
      <point x="1175" y="1292" type="move" name="top"/>
    </contour>
    <contour>
      <point x="948" y="0" type="move" name="bottom"/>
    </contour>
    <contour>
      <point x="88" y="1169" type="line"/>
      <point x="347" y="-8" type="line"/>
      <point x="652" y="-8" type="line"/>
      <point x="1112" y="911" type="line"/>
      <point x="1062" y="1202" type="line"/>
      <point x="682" y="460" type="line"/>
      <point x="528" y="128" type="line"/>
      <point x="605" y="117" type="line"/>
      <point x="551" y="448" type="line"/>
      <point x="421" y="1166" type="line"/>
      <point x="587" y="1192" type="line"/>
      <point x="591" y="1292" type="line"/>
      <point x="-47" y="1292" type="line"/>
      <point x="-57" y="1195" type="line"/>
    </contour>
    <contour>
      <point x="969" y="1169" type="line"/>
      <point x="1161" y="-8" type="line"/>
      <point x="1469" y="-8" type="line"/>
      <point x="2111" y="1171" type="line"/>
      <point x="2276" y="1195" type="line"/>
      <point x="2283" y="1292" type="line"/>
      <point x="1715" y="1292" type="line"/>
      <point x="1708" y="1192" type="line"/>
      <point x="1903" y="1169" type="line"/>
      <point x="1527" y="455" type="line"/>
      <point x="1357" y="131" type="line"/>
      <point x="1429" y="116" type="line"/>
      <point x="1402" y="448" type="line"/>
      <point x="1288" y="1170" type="line"/>
      <point x="1463" y="1192" type="line"/>
      <point x="1470" y="1292" type="line"/>
      <point x="809" y="1292" type="line"/>
      <point x="802" y="1195" type="line"/>
    </contour>
  </outline>
</glyph>
<glyph name="x.sc" format="1">
  <advance width="1454"/>
  <outline>
    <contour>
      <point x="-66" y="97" type="line"/>
      <point x="-74" y="0" type="line"/>
      <point x="470" y="0" type="line"/>
      <point x="477" y="97" type="line"/>
      <point x="314" y="123" type="line"/>
      <point x="637" y="478" type="line"/>
      <point x="890" y="679" type="line"/>
      <point x="1372" y="1171" type="line"/>
      <point x="1516" y="1193" type="line"/>
      <point x="1521" y="1292" type="line"/>
      <point x="981" y="1292" type="line"/>
      <point x="978" y="1193" type="line"/>
      <point x="1122" y="1171" type="line"/>
      <point x="812" y="816" type="line"/>
      <point x="559" y="625" type="line"/>
      <point x="55" y="123" type="line"/>
    </contour>
    <contour>
      <point x="686" y="97" type="line"/>
      <point x="681" y="0" type="line"/>
      <point x="1387" y="0" type="line"/>
      <point x="1395" y="97" type="line"/>
      <point x="1258" y="123" type="line"/>
      <point x="890" y="679" type="line"/>
      <point x="812" y="816" type="line"/>
      <point x="618" y="1171" type="line"/>
      <point x="773" y="1195" type="line"/>
      <point x="778" y="1292" type="line"/>
      <point x="101" y="1292" type="line"/>
      <point x="94" y="1193" type="line"/>
      <point x="222" y="1171" type="line"/>
      <point x="559" y="625" type="line"/>
      <point x="637" y="478" type="line"/>
      <point x="842" y="123" type="line"/>
    </contour>
  </outline>
</glyph>
<glyph name="y.sc" format="1">
  <advance width="1383"/>
  <outline>
    <contour>
      <point x="148" y="1292" type="move" name="topleft"/>
    </contour>
    <contour>
      <point x="826" y="1292" type="move" name="top"/>
    </contour>
    <contour>
      <point x="630" y="0" type="move" name="bottom"/>
    </contour>
    <contour>
      <point x="217" y="97" type="line"/>
      <point x="208" y="0" type="line"/>
      <point x="1055" y="0" type="line"/>
      <point x="1062" y="97" type="line"/>
      <point x="805" y="123" type="line"/>
      <point x="873" y="654" type="line"/>
      <point x="776" y="405" type="line"/>
      <point x="1372" y="1171" type="line"/>
      <point x="1506" y="1193" type="line"/>
      <point x="1519" y="1292" type="line"/>
      <point x="973" y="1292" type="line"/>
      <point x="965" y="1193" type="line"/>
      <point x="1137" y="1171" type="line"/>
      <point x="835" y="760" type="line"/>
      <point x="701" y="540" type="line"/>
      <point x="822" y="530" type="line"/>
      <point x="717" y="788" type="line"/>
      <point x="526" y="1171" type="line"/>
      <point x="708" y="1193" type="line"/>
      <point x="721" y="1292" type="line"/>
      <point x="4" y="1292" type="line"/>
      <point x="-4" y="1193" type="line"/>
      <point x="132" y="1171" type="line"/>
      <point x="571" y="393" type="line"/>
      <point x="521" y="654" type="line"/>
      <point x="459" y="123" type="line"/>
    </contour>
  </outline>
</glyph>
<glyph name="z.sc" format="1">
  <advance width="1293"/>
  <outline>
    <contour>
      <point x="723" y="1292" type="move" name="top"/>
    </contour>
    <contour>
      <point x="563" y="0" type="move" name="bottom"/>
    </contour>
    <contour>
      <point x="-53" y="78" type="line"/>
      <point x="-16" y="0" type="line"/>
      <point x="1148" y="0" type="line"/>
      <point x="1239" y="386" type="line"/>
      <point x="1063" y="431" type="line"/>
      <point x="875" y="146" type="line"/>
      <point x="342" y="127" type="line"/>
      <point x="461" y="193" type="line"/>
      <point x="1319" y="1216" type="line"/>
      <point x="1286" y="1292" type="line"/>
      <point x="203" y="1292" type="line"/>
      <point x="151" y="949" type="line"/>
      <point x="325" y="930" type="line"/>
      <point x="460" y="1159" type="line"/>
      <point x="947" y="1179" type="line"/>
      <point x="815" y="1118" type="line"/>
    </contour>
  </outline>
</glyph>
